{
  "extensionsUsed": [
    "KHR_lights_punctual"
  ],
  "accessors": [
    {
      "bufferView": 0,
      "componentType": 5126,
      "count": 133,
      "type": "VEC3",
      "max": [
        0.063792474567890167,
        0.012996473349630833,
        0.063793770968914032
      ],
      "min": [
        -0.063792474567890167,
        1.0656674930942245E-05,
        -0.063793770968914032
      ]
    },
    {
      "bufferView": 1,
      "componentType": 5126,
      "count": 133,
      "type": "VEC3",
      "max": [
        1.0,
        1.0,
        1.0
      ],
      "min": [
        -1.0,
        -1.0,
        -1.0
      ]
    },
    {
      "bufferView": 2,
      "componentType": 5126,
      "count": 133,
      "type": "VEC4",
      "max": [
        1.0,
        1.0,
        0.0,
        1.0
      ],
      "min": [
        0.0,
        -1.0,
        0.0,
        1.0
      ]
    },
    {
      "bufferView": 3,
      "componentType": 5126,
      "count": 133,
      "type": "VEC2",
      "max": [
        0.944033145904541,
        0.35648572444915771
      ],
      "min": [
        0.0019390583038330078,
        0.2309911847114563
      ]
    },
    {
      "bufferView": 4,
      "componentType": 5121,
      "count": 450,
      "type": "SCALAR",
      "max": [
        132.0
      ],
      "min": [
        0.0
      ]
    },
    {
      "bufferView": 5,
      "componentType": 5126,
      "count": 1409,
      "type": "VEC3",
      "max": [
        0.16218133270740509,
        0.11581943929195404,
        0.1621813029050827
      ],
      "min": [
        -0.16218125820159912,
        0.010880956426262856,
        -0.16218124330043793
      ]
    },
    {
      "bufferView": 6,
      "componentType": 5126,
      "count": 1409,
      "type": "VEC3",
      "max": [
        1.0,
        1.0,
        1.0
      ],
      "min": [
        -1.0,
        -1.0,
        -1.0
      ]
    },
    {
      "bufferView": 7,
      "componentType": 5126,
      "count": 1409,
      "type": "VEC4",
      "max": [
        1.0,
        0.99841034412384033,
        1.0,
        1.0
      ],
      "min": [
        -1.0,
        -0.99835038185119629,
        -1.0,
        -1.0
      ]
    },
    {
      "bufferView": 8,
      "componentType": 5126,
      "count": 1409,
      "type": "VEC2",
      "max": [
        1.0000003576278687,
        1.0000001192092896
      ],
      "min": [
        0.0,
        0.0
      ]
    },
    {
      "bufferView": 9,
      "componentType": 5123,
      "count": 4344,
      "type": "SCALAR",
      "max": [
        1215.0
      ],
      "min": [
        0.0
      ]
    },
    {
      "bufferView": 10,
      "componentType": 5123,
      "count": 432,
      "type": "SCALAR",
      "max": [
        1408.0
      ],
      "min": [
        1216.0
      ]
    }
  ],
  "asset": {
    "version": "2.0"
  },
  "buffers": [
    {
      "uri": "wheel.bin",
      "byteLength": 84018
    }
  ],
  "bufferViews": [
    {
      "buffer": 0,
      "byteLength": 1596
    },
    {
      "buffer": 0,
      "byteOffset": 1596,
      "byteLength": 1596
    },
    {
      "buffer": 0,
      "byteOffset": 3192,
      "byteLength": 2128
    },
    {
      "buffer": 0,
      "byteOffset": 5320,
      "byteLength": 1064
    },
    {
      "buffer": 0,
      "byteOffset": 6384,
      "byteLength": 450
    },
    {
      "buffer": 0,
      "byteOffset": 6834,
      "byteLength": 16908
    },
    {
      "buffer": 0,
      "byteOffset": 23742,
      "byteLength": 16908
    },
    {
      "buffer": 0,
      "byteOffset": 40650,
      "byteLength": 22544
    },
    {
      "buffer": 0,
      "byteOffset": 63194,
      "byteLength": 11272
    },
    {
      "buffer": 0,
      "byteOffset": 74466,
      "byteLength": 8688
    },
    {
      "buffer": 0,
      "byteOffset": 83154,
      "byteLength": 864
    }
  ],
  "materials": [
    {
      "pbrMetallicRoughness": {
        "baseColorFactor": [
          0.6415094,
          0.6415094,
          0.6415094,
          1.0
        ],
        "metallicFactor": 0.0,
        "roughnessFactor": 0.38099998235702515
      },
      "name": "MediumGrey"
    },
    {
      "pbrMetallicRoughness": {
        "baseColorFactor": [
          0.150943369,
          0.150943369,
          0.150943369,
          1.0
        ],
        "metallicFactor": 0.0,
        "roughnessFactor": 0.5
      },
      "name": "AccentButton"
    }
  ],
  "meshes": [
    {
      "primitives": [
        {
          "attributes": {
            "POSITION": 0,
            "NORMAL": 1,
            "TANGENT": 2,
            "TEXCOORD_0": 3
          },
          "indices": 4,
          "material": 0
        }
      ],
      "name": "Wheel Visuals"
    },
    {
      "primitives": [
        {
          "attributes": {
            "POSITION": 5,
            "NORMAL": 6,
            "TANGENT": 7,
            "TEXCOORD_0": 8
          },
          "indices": 9,
          "material": 1
        },
        {
          "attributes": {
            "POSITION": 5,
            "NORMAL": 6,
            "TANGENT": 7,
            "TEXCOORD_0": 8
          },
          "indices": 10,
          "material": 0
        }
      ],
      "name": "Wheel"
    }
  ],
  "nodes": [
    {
      "children": [
        1,
        3
      ],
      "name": "Wheel"
    },
    {
      "children": [
        2
      ],
      "mesh": 0,
      "name": "Wheel Visuals"
    },
    {
      "mesh": 1,
      "name": "Wheel"
    },
    {
      "children": [
        4,
        5
      ],
      "name": "Feedback Effects"
    },
    {
      "name": "Audio Feedback"
    },
    {
      "name": "Visual Feedback"
    }
  ],
  "scene": 0,
  "scenes": [
    {
      "nodes": [
        0
      ],
      "name": "wheel"
    }
  ]
}